<svg width="116" height="116" viewBox="0 0 116 116" fill="none" xmlns="http://www.w3.org/2000/svg">
<path d="M16.5714 78.7143V74.5714H8.28571V78.7143C8.28571 86.4056 11.3411 93.7818 16.7796 99.2204C22.2182 104.659 29.5944 107.714 37.2857 107.714H49.7143V99.4286H37.2857C31.7919 99.4286 26.5232 97.2462 22.6385 93.3615C18.7538 89.4768 16.5714 84.2081 16.5714 78.7143ZM91.1429 37.2857V41.4286H99.4286V37.2857C99.4286 29.5944 96.3732 22.2182 90.9347 16.7796C85.4961 11.3411 78.1199 8.28572 70.4286 8.28572H58V16.5714H70.4286C73.1488 16.5714 75.8424 17.1072 78.3556 18.1482C80.8688 19.1892 83.1523 20.715 85.0758 22.6385C86.9993 24.562 88.5251 26.8455 89.5661 29.3587C90.6071 31.8719 91.1429 34.5655 91.1429 37.2857ZM37.2857 37.2857H12.4286C9.13231 37.2857 5.97105 38.5952 3.64024 40.926C1.30944 43.2568 0 46.418 0 49.7143V58H8.28571V49.7143C8.28571 48.6155 8.72219 47.5618 9.49913 46.7849C10.2761 46.0079 11.3298 45.5714 12.4286 45.5714H37.2857C38.3845 45.5714 39.4382 46.0079 40.2152 46.7849C40.9921 47.5618 41.4286 48.6155 41.4286 49.7143V58H49.7143V49.7143C49.7143 46.418 48.4049 43.2568 46.074 40.926C43.7432 38.5952 40.582 37.2857 37.2857 37.2857ZM24.8571 33.1429C28.1347 33.1429 31.3386 32.171 34.0637 30.3501C36.7889 28.5292 38.9129 25.9411 40.1671 22.913C41.4214 19.885 41.7496 16.5531 41.1102 13.3385C40.4707 10.124 38.8925 7.17122 36.5749 4.85367C34.2574 2.53611 31.3046 0.957835 28.0901 0.318423C24.8755 -0.320989 21.5436 0.00718009 18.5155 1.26143C15.4875 2.51568 12.8994 4.63969 11.0785 7.36484C9.25761 10.09 8.28571 13.2939 8.28571 16.5714C8.28571 20.9665 10.0316 25.1815 13.1394 28.2892C16.2471 31.397 20.4621 33.1429 24.8571 33.1429ZM24.8571 8.28572C26.4959 8.28572 28.0979 8.77167 29.4604 9.68212C30.823 10.5926 31.885 11.8866 32.5121 13.4006C33.1393 14.9146 33.3034 16.5806 32.9837 18.1879C32.6639 19.7952 31.8748 21.2715 30.716 22.4303C29.5572 23.5891 28.0809 24.3782 26.4736 24.6979C24.8663 25.0176 23.2004 24.8536 21.6863 24.2264C20.1723 23.5993 18.8783 22.5373 17.9678 21.1747C17.0574 19.8122 16.5714 18.2102 16.5714 16.5714C16.5714 14.3739 17.4444 12.2664 18.9983 10.7126C20.5521 9.15868 22.6596 8.28572 24.8571 8.28572ZM103.571 95.2857H78.7143C75.418 95.2857 72.2568 96.5952 69.926 98.926C67.5951 101.257 66.2857 104.418 66.2857 107.714V116H74.5714V107.714C74.5714 106.616 75.0079 105.562 75.7848 104.785C76.5618 104.008 77.6155 103.571 78.7143 103.571H103.571C104.67 103.571 105.724 104.008 106.501 104.785C107.278 105.562 107.714 106.616 107.714 107.714V116H116V107.714C116 104.418 114.691 101.257 112.36 98.926C110.029 96.5952 106.868 95.2857 103.571 95.2857ZM74.5714 74.5714C74.5714 77.849 75.5433 81.0529 77.3642 83.778C79.1851 86.5032 81.7732 88.6272 84.8012 89.8814C87.8293 91.1357 91.1612 91.4639 94.3758 90.8244C97.5903 90.185 100.543 88.6068 102.861 86.2892C105.178 83.9716 106.756 81.0189 107.396 77.8044C108.035 74.5898 107.707 71.2579 106.453 68.2298C105.199 65.2018 103.075 62.6137 100.349 60.7928C97.6243 58.9719 94.4204 58 91.1429 58C86.7478 58 82.5328 59.7459 79.4251 62.8537C76.3173 65.9614 74.5714 70.1764 74.5714 74.5714ZM99.4286 74.5714C99.4286 76.2102 98.9426 77.8122 98.0322 79.1747C97.1217 80.5373 95.8277 81.5993 94.3137 82.2264C92.7996 82.8536 91.1337 83.0176 89.5264 82.6979C87.9191 82.3782 86.4427 81.5891 85.284 80.4303C84.1252 79.2715 83.3361 77.7952 83.0163 76.1879C82.6966 74.5806 82.8607 72.9146 83.4879 71.4006C84.115 69.8866 85.177 68.5926 86.5396 67.6821C87.9021 66.7717 89.5041 66.2857 91.1429 66.2857C93.3404 66.2857 95.4479 67.1587 97.0017 68.7126C98.5556 70.2664 99.4286 72.3739 99.4286 74.5714Z" fill="white"/>
</svg>
