<svg width="116" height="116" viewBox="0 0 116 116" fill="none" xmlns="http://www.w3.org/2000/svg">
<path d="M97.875 34.4375C99.3171 34.4375 100.7 33.8646 101.72 32.8449C102.74 31.8252 103.312 30.4421 103.312 29V21.75C103.312 20.3079 102.74 18.9248 101.72 17.9051C100.7 16.8854 99.3171 16.3125 97.875 16.3125H18.125C16.6829 16.3125 15.2998 16.8854 14.2801 17.9051C13.2604 18.9248 12.6875 20.3079 12.6875 21.75V29C12.6875 30.4421 13.2604 31.8252 14.2801 32.8449C15.2998 33.8646 16.6829 34.4375 18.125 34.4375H19.9375V81.5625H14.5C14.0193 81.5625 13.5583 81.7535 13.2184 82.0934C12.8785 82.4333 12.6875 82.8943 12.6875 83.375C12.6875 83.8557 12.8785 84.3167 13.2184 84.6566C13.5583 84.9965 14.0193 85.1875 14.5 85.1875H56.1875V96.2438C53.987 96.6929 52.0318 97.9431 50.7007 99.752C49.3697 101.561 48.7577 103.8 48.9834 106.034C49.2091 108.268 50.2565 110.34 51.9224 111.846C53.5883 113.352 55.7542 114.186 58 114.186C60.2458 114.186 62.4117 113.352 64.0776 111.846C65.7435 110.34 66.7909 108.268 67.0166 106.034C67.2423 103.8 66.6304 101.561 65.2993 99.752C63.9682 97.9431 62.013 96.6929 59.8125 96.2438V85.1875H101.5C101.981 85.1875 102.442 84.9965 102.782 84.6566C103.122 84.3167 103.312 83.8557 103.312 83.375C103.312 82.8943 103.122 82.4333 102.782 82.0934C102.442 81.7535 101.981 81.5625 101.5 81.5625H96.0625V34.4375H97.875ZM63.4375 105.125C63.4375 106.2 63.1186 107.252 62.5211 108.146C61.9236 109.04 61.0744 109.737 60.0808 110.149C59.0873 110.56 57.994 110.668 56.9392 110.458C55.8844 110.248 54.9156 109.73 54.1551 108.97C53.3947 108.209 52.8768 107.241 52.667 106.186C52.4572 105.131 52.5649 104.038 52.9764 103.044C53.388 102.051 54.0849 101.201 54.9791 100.604C55.8733 100.006 56.9246 99.6875 58 99.6875C59.4421 99.6875 60.8252 100.26 61.8449 101.28C62.8646 102.3 63.4375 103.683 63.4375 105.125ZM16.3125 29V21.75C16.3125 21.2693 16.5035 20.8083 16.8434 20.4684C17.1833 20.1285 17.6443 19.9375 18.125 19.9375H97.875C98.3557 19.9375 98.8167 20.1285 99.1566 20.4684C99.4965 20.8083 99.6875 21.2693 99.6875 21.75V29C99.6875 29.4807 99.4965 29.9417 99.1566 30.2816C98.8167 30.6215 98.3557 30.8125 97.875 30.8125H18.125C17.6443 30.8125 17.1833 30.6215 16.8434 30.2816C16.5035 29.9417 16.3125 29.4807 16.3125 29ZM92.4375 81.5625H23.5625V34.4375H92.4375V81.5625Z" fill="white"/>
</svg>
