<svg width="116" height="116" viewBox="0 0 116 116" fill="none" xmlns="http://www.w3.org/2000/svg">
<path d="M97.4979 32.625H88.5031L66.4341 54.6843C67.1942 56.6215 67.2641 58.7613 66.632 60.7439C66 62.7265 64.7045 64.4311 62.9635 65.5709C61.2225 66.7107 59.1421 67.2163 57.0721 67.0026C55.0022 66.7889 53.069 65.869 51.5975 64.3975C50.1261 62.9261 49.2062 60.9929 48.9925 58.9229C48.7788 56.853 49.2844 54.7726 50.4242 53.0316C51.564 51.2905 53.2685 49.9951 55.2511 49.363C57.2338 48.731 59.3736 48.8009 61.3107 49.561L83.3749 27.4968V18.502C83.3754 17.2984 83.8534 16.1442 84.7041 15.2927L93.0657 6.931C93.2202 6.77481 93.4144 6.66386 93.6274 6.61018C93.8404 6.55651 94.064 6.56215 94.2741 6.6265C94.7042 6.75216 95.0232 7.10983 95.1102 7.54966L97.3336 18.6712L108.45 20.8945C108.885 20.9815 109.243 21.3005 109.369 21.7307C109.432 21.9396 109.438 22.1619 109.385 22.3738C109.332 22.5857 109.223 22.7794 109.069 22.9342L100.702 31.2958C100.282 31.7171 99.7823 32.0513 99.2325 32.2794C98.6826 32.5075 98.0932 32.6249 97.4979 32.625Z" fill="white"/>
<path d="M12.6875 58C12.6875 70.0176 17.4615 81.543 25.9592 90.0408C34.457 98.5385 45.9824 103.312 58 103.312C63.9505 103.312 69.8428 102.14 75.3403 99.8633C80.8379 97.5861 85.8331 94.2484 90.0408 90.0408C94.2484 85.8331 97.5861 80.8379 99.8633 75.3403C102.14 69.8428 103.312 63.9505 103.312 58C103.312 53.6597 102.704 49.4643 101.568 45.4962C101.342 44.585 101.478 43.6218 101.948 42.8093C102.418 41.9967 103.185 41.3982 104.088 41.1396C104.99 40.8809 105.957 40.9824 106.786 41.4227C107.615 41.8629 108.241 42.6076 108.533 43.5C109.857 48.111 110.562 52.9733 110.562 58C110.562 87.029 87.029 110.562 58 110.562C28.971 110.562 5.4375 87.029 5.4375 58C5.4375 28.971 28.971 5.4375 58 5.4375C62.9058 5.43266 67.7827 6.11416 72.5 7.46266C72.96 7.59168 73.3899 7.81035 73.765 8.10607C74.1402 8.4018 74.4532 8.76877 74.6861 9.18587C74.9189 9.60298 75.0671 10.062 75.1219 10.5365C75.1768 11.0111 75.1374 11.4918 75.0058 11.951C74.8743 12.4103 74.6533 12.839 74.3555 13.2125C74.0577 13.5861 73.6891 13.8971 73.2707 14.1277C72.8523 14.3583 72.3925 14.5039 71.9177 14.5562C71.4428 14.6084 70.9623 14.5664 70.5038 14.4323C66.4375 13.271 62.2289 12.6837 58 12.6875C45.9824 12.6875 34.457 17.4615 25.9592 25.9592C17.4615 34.457 12.6875 45.9824 12.6875 58Z" fill="white"/>
<path d="M34.4374 58C34.4509 61.2012 35.1167 64.3661 36.3942 67.3014C37.6716 70.2368 39.5339 72.8809 41.8674 75.0725C44.2009 77.2641 46.9566 78.957 49.9662 80.048C52.9758 81.1391 56.1762 81.6052 59.372 81.4181C62.5677 81.231 65.6919 80.3944 68.5536 78.9596C71.4153 77.5248 73.9545 75.5218 76.0162 73.0728C78.078 70.6239 79.619 67.7805 80.5451 64.7161C81.4712 61.6517 81.7631 58.4308 81.4029 55.2498C81.3014 54.6056 81.3761 53.9459 81.619 53.3407C81.8619 52.7354 82.2639 52.2072 82.7826 51.8118C83.3013 51.4165 83.9173 51.1688 84.5653 51.0951C85.2132 51.0213 85.8691 51.1242 86.4634 51.3928C87.6766 51.9342 88.4934 53.0893 88.5997 54.4137C89.3502 60.7707 88.1015 67.2036 85.0273 72.8182C81.9531 78.4329 77.2061 82.9503 71.4461 85.7426C65.6861 88.5349 59.1992 89.4634 52.8871 88.3989C46.5751 87.3345 40.7515 84.33 36.2257 79.8032C31.7012 75.2812 28.696 69.4634 27.6269 63.1566C26.5577 56.8497 27.4777 50.3665 30.2591 44.6061C33.0405 38.8456 37.5456 34.0934 43.1494 31.0087C48.7533 27.9239 55.1782 26.6594 61.5331 27.3905C62.0135 27.4351 62.4801 27.5751 62.9057 27.8024C63.3313 28.0296 63.7073 28.3396 64.0115 28.714C64.3158 29.0885 64.5422 29.5199 64.6776 29.983C64.8129 30.4461 64.8545 30.9316 64.7998 31.4109C64.7451 31.8903 64.5953 32.3539 64.3591 32.7746C64.1229 33.1953 63.8051 33.5646 63.4243 33.8609C63.0435 34.1572 62.6074 34.3745 62.1416 34.5001C61.6757 34.6256 61.1895 34.6569 60.7114 34.5922C57.4104 34.2105 54.0659 34.5313 50.8976 35.5334C47.7293 36.5355 44.8087 38.1963 42.3276 40.4068C39.8464 42.6173 37.8607 45.3275 36.5009 48.3596C35.1411 51.3916 34.4379 54.677 34.4374 58Z" fill="white"/>
</svg>
