<svg width="116" height="116" viewBox="0 0 116 116" fill="none" xmlns="http://www.w3.org/2000/svg">
<path d="M20.4814 116V91.756C13.9956 86.1708 8.96177 79.8939 5.37979 72.9253C1.79782 65.9567 0.00455143 58.8034 0 51.4653C0 37.1759 5.30924 25.0259 15.9277 15.0156C26.5508 5.00519 39.4472 0 54.6172 0C66.9151 0 78.0297 3.5337 87.9609 10.6011C97.8876 17.6685 104.328 26.7982 107.282 37.99L116 70.8889H95.58V103.111H68.2714V116H61.4443V96.6667H84.5542C85.7785 96.6667 86.7844 96.295 87.5718 95.5518C88.3592 94.8085 88.7529 93.859 88.7529 92.7033V64.4444H107.186L100.7 39.4722C98.0833 29.6165 92.4623 21.6469 83.8373 15.5633C75.226 9.48407 65.486 6.44444 54.6172 6.44444C41.418 6.44444 30.1532 10.8052 20.8228 19.5267C11.4924 28.2481 6.82714 38.86 6.82714 51.3622C6.82714 57.7809 8.22216 63.8816 11.0122 69.6645C13.7977 75.443 17.7506 80.5813 22.8709 85.0796L27.3086 88.9333V116H20.4814ZM51.2036 67.6667H58.0307V29H51.2036V67.6667ZM71.685 58H78.5122V35.4444H71.685V58ZM30.7221 54.7778H37.5493V35.4444H30.7221V54.7778Z" fill="white"/>
</svg>
